<mxfile host="app.diagrams.net" modified="2023-10-17T17:08:45.086Z" agent="Mozilla/5.0 (Windows NT 10.0; Win64; x64) AppleWebKit/537.36 (KHTML, like Gecko) Chrome/118.0.0.0 Safari/537.36" version="22.0.4" etag="Ul_cWz6Xl5-90ePHk5hA" type="github">
  <diagram name="Page-1" id="kwxa8X6h-Z5-E6gYTEHR">
    <mxGraphModel>
      <root>
        <mxCell id="0" />
        <mxCell id="1" parent="0" />
      </root>
    </mxGraphModel>
  </diagram>
</mxfile>
